<?xml version="1.0" encoding="utf-8"?>
<!-- Generator: Adobe Illustrator 18.0.0, SVG Export Plug-In . SVG Version: 6.00 Build 0)  -->
<!DOCTYPE svg PUBLIC "-//W3C//DTD SVG 1.1//EN" "http://www.w3.org/Graphics/SVG/1.1/DTD/svg11.dtd">
<svg version="1.1" id="Capa_1" xmlns="http://www.w3.org/2000/svg" xmlns:xlink="http://www.w3.org/1999/xlink" x="0px" y="0px"
	 viewBox="0 0 640 100" enable-background="new 0 0 640 100" xml:space="preserve">
<g>
	<g>
		<path fill="#DADADA" d="M72.4,85.2c-0.5,0-0.8-0.4-0.8-0.8V17.1c0-0.5,0.4-0.8,0.8-0.8h4.1c0.5,0,0.8,0.4,0.8,0.8v67.2
			c0,0.5-0.4,0.8-0.8,0.8H72.4z"/>
		<path fill="#DADADA" d="M87.3,85.2c-0.5,0-0.8-0.4-0.8-0.8V17.1c0-0.5,0.4-0.8,0.8-0.8h45.2c0.5,0,0.8,0.4,0.8,0.8v3.6
			c0,0.5-0.4,0.8-0.8,0.8H92.3v25.3h37.8c0.5,0,0.8,0.4,0.8,0.8v3.6c0,0.5-0.4,0.8-0.8,0.8H92.3v27.9H133c0.5,0,0.8,0.4,0.8,0.8v3.6
			c0,0.5-0.4,0.8-0.8,0.8H87.3z"/>
		<path fill="#DADADA" d="M186.6,85.2c-0.3,0-0.5-0.1-0.7-0.4l-41.4-60.2v59.8c0,0.5-0.4,0.8-0.8,0.8h-4.1c-0.5,0-0.8-0.4-0.8-0.8
			V17.1c0-0.5,0.4-0.8,0.8-0.8h5.2c0.3,0,0.5,0.1,0.7,0.4l41.2,59.8V17.1c0-0.5,0.4-0.8,0.8-0.8h4.1c0.5,0,0.8,0.4,0.8,0.8v67.2
			c0,0.5-0.4,0.8-0.8,0.8H186.6z"/>
		<path fill="#DADADA" d="M420.2,85.2c-0.5,0-0.8-0.4-0.8-0.8V52h-41.3v32.3c0,0.5-0.4,0.8-0.8,0.8h-4.1c-0.5,0-0.8-0.4-0.8-0.8
			V17.1c0-0.5,0.4-0.8,0.8-0.8h4.1c0.5,0,0.8,0.4,0.8,0.8v29.7h41.3V17.1c0-0.5,0.4-0.8,0.8-0.8h4.1c0.5,0,0.8,0.4,0.8,0.8v67.2
			c0,0.5-0.4,0.8-0.8,0.8H420.2z"/>
		<path fill="#DADADA" d="M432.7,85.2c-0.5,0-0.8-0.4-0.8-0.8V17.1c0-0.5,0.4-0.8,0.8-0.8h45.2c0.5,0,0.8,0.4,0.8,0.8v3.6
			c0,0.5-0.4,0.8-0.8,0.8h-40.2v25.3h37.8c0.5,0,0.8,0.4,0.8,0.8v3.6c0,0.5-0.4,0.8-0.8,0.8h-37.8v27.9h40.7c0.5,0,0.8,0.4,0.8,0.8
			v3.6c0,0.5-0.4,0.8-0.8,0.8H432.7z"/>
		<path fill="#DADADA" d="M532,85.2c-0.3,0-0.5-0.1-0.7-0.4l-41.4-60.3v59.8c0,0.5-0.4,0.8-0.8,0.8h-4.1c-0.5,0-0.8-0.4-0.8-0.8
			V17.1c0-0.5,0.4-0.8,0.8-0.8h5.2c0.3,0,0.5,0.1,0.7,0.4l41.2,59.8V17.1c0-0.5,0.4-0.8,0.8-0.8h4.1c0.5,0,0.8,0.4,0.8,0.8v67.2
			c0,0.5-0.4,0.8-0.8,0.8H532z"/>
		<path fill="#DADADA" d="M565.8,85.2c-0.5,0-0.8-0.4-0.8-0.8V21.5h-22.8c-0.5,0-0.8-0.4-0.8-0.8v-3.6c0-0.5,0.4-0.8,0.8-0.8h51.5
			c0.5,0,0.8,0.4,0.8,0.8v3.6c0,0.5-0.4,0.8-0.8,0.8h-22.9v62.8c0,0.5-0.4,0.8-0.8,0.8H565.8z"/>
		<path fill="#DADADA" d="M634.1,85.2c-0.3,0-0.6-0.2-0.8-0.5l-8.3-21H594l-8.4,21c-0.1,0.3-0.4,0.5-0.8,0.5h-4.4
			c-0.3,0-0.5-0.1-0.7-0.4c-0.2-0.2-0.2-0.5-0.1-0.8l27-67.2c0.1-0.3,0.4-0.5,0.8-0.5h4.5c0.3,0,0.6,0.2,0.8,0.5L639.3,84
			c0.1,0.3,0.1,0.5-0.1,0.8c-0.2,0.2-0.4,0.4-0.7,0.4H634.1z M623.1,58.4l-13.3-35.2l-13.8,35.2H623.1z"/>
		<path fill="#DADADA" d="M32.7,86.3c-5.1,0-9.7-0.9-13.8-2.8c-4.1-1.9-7.5-4.4-10.3-7.7c-2.8-3.2-4.9-7.1-6.4-11.4
			c-1.5-4.3-2.2-9-2.2-14c0-4.9,0.7-9.6,2.2-14c1.5-4.4,3.6-8.2,6.4-11.4c2.8-3.2,6.3-5.8,10.3-7.7c4.1-1.9,8.7-2.8,13.8-2.8
			c5.1,0,9.7,0.9,13.7,2.8c4,1.9,7.5,4.4,10.3,7.7c2.8,3.2,4.9,7.1,6.4,11.4c0.2,0.6,0.4,1.3,0.6,2.1c0.1,0.2,0,0.5-0.1,0.7
			c-0.2,0.2-0.4,0.3-0.7,0.3h-4.3c-0.4,0-0.7-0.2-0.8-0.6c0,0-0.1-0.4-0.2-0.5c-1.2-3.7-3-7-5.3-9.7c-2.3-2.7-5.1-5-8.4-6.6
			c-3.3-1.6-7.1-2.4-11.3-2.4c-4.2,0-8,0.8-11.4,2.4c-3.3,1.6-6.2,3.8-8.4,6.6c-2.3,2.7-4.1,6-5.3,9.7c-1.2,3.7-1.8,7.7-1.8,11.9
			c0,4.2,0.6,8.2,1.8,11.9c1.2,3.7,3,7,5.3,9.7c2.3,2.7,5.1,5,8.4,6.6c3.3,1.6,7.1,2.4,11.4,2.4c4.2,0,8-0.8,11.3-2.4
			c3.3-1.6,6.1-3.8,8.4-6.6c2.3-2.7,4.1-6,5.3-9.7c0.6-1.9,1.1-3.9,1.4-6c0.1-0.4,0.4-0.7,0.8-0.7h4.2c0.2,0,0.5,0.1,0.6,0.3
			c0.2,0.2,0.2,0.4,0.2,0.6c-0.4,2.7-1,5.4-1.8,7.8c-1.5,4.4-3.6,8.2-6.4,11.4c-2.8,3.2-6.2,5.8-10.3,7.7
			C42.4,85.4,37.8,86.3,32.7,86.3z"/>
	</g>
	<path fill="#EC6D1C" d="M334,86.3c-5.1,0-9.7-0.9-13.8-2.8c-4.1-1.9-7.5-4.4-10.3-7.7c-2.8-3.2-4.9-7.1-6.4-11.4
		c-1.5-4.3-2.2-9-2.2-14c0-4.9,0.7-9.6,2.2-14c1.5-4.4,3.6-8.2,6.4-11.4c2.8-3.2,6.3-5.8,10.3-7.7c4.1-1.9,8.7-2.8,13.8-2.8
		c5.1,0,9.7,0.9,13.7,2.8c4,1.9,7.5,4.4,10.3,7.7c2.8,3.2,4.9,7.1,6.4,11.4c0.2,0.6,0.4,1.3,0.6,2.1c0.1,0.2,0,0.5-0.1,0.7
		c-0.2,0.2-0.4,0.3-0.7,0.3h-4.3c-0.4,0-0.7-0.2-0.8-0.6c0,0-0.1-0.4-0.2-0.5c-1.2-3.7-3-7-5.3-9.7c-2.3-2.7-5.1-5-8.4-6.6
		c-3.3-1.6-7.1-2.4-11.3-2.4c-4.2,0-8,0.8-11.4,2.4c-3.3,1.6-6.2,3.8-8.4,6.6c-2.3,2.7-4.1,6-5.3,9.7c-1.2,3.7-1.8,7.7-1.8,11.9
		c0,4.2,0.6,8.2,1.8,11.9c1.2,3.7,3,7,5.3,9.7c2.3,2.7,5.1,5,8.4,6.6c3.3,1.6,7.1,2.4,11.4,2.4c4.2,0,8-0.8,11.3-2.4
		c3.3-1.6,6.1-3.8,8.4-6.6c2.3-2.7,4.1-6,5.3-9.7c0.6-1.9,1.1-3.9,1.4-6c0.1-0.4,0.4-0.7,0.8-0.7h4.2c0.2,0,0.5,0.1,0.6,0.3
		c0.2,0.2,0.2,0.4,0.2,0.6c-0.4,2.7-1,5.4-1.8,7.8c-1.5,4.4-3.6,8.2-6.4,11.4c-2.8,3.2-6.2,5.8-10.3,7.7
		C343.7,85.4,339.1,86.3,334,86.3z M226.8,16.1H199c-0.5,0-0.8,0.4-0.8,0.8v3.6c0,0.5,0.4,0.8,0.8,0.8h22.8v62.8
		c0,0.5,0.4,0.8,0.8,0.8h4.1c0.5,0,0.8-0.4,0.8-0.8V16.9C227.6,16.5,227.3,16.1,226.8,16.1z M266.3,98.8
		c-18.3,0-33.1-12.7-33.1-28.3c0-11.3,7.8-21.4,19.9-25.9c-8.7-4.1-14.1-11.9-14.1-20.4C239,11.4,251.2,1,266.3,1
		c15,0,27.3,10.4,27.3,23.3c0,8.5-5.4,16.2-14.1,20.4c12.1,4.5,19.9,14.6,19.9,25.9C299.4,86.1,284.5,98.8,266.3,98.8z M266.3,47.6
		c-14.9,0-27,10.3-27,22.9c0,12.6,12.1,22.9,27,22.9c14.9,0,27-10.3,27-22.9C293.2,57.9,281.1,47.6,266.3,47.6z M266.3,5.9
		c-12,0-21.7,8.3-21.7,18.4c0,10.1,9.7,18.4,21.7,18.4c12,0,21.7-8.3,21.7-18.4C287.9,14.1,278.2,5.9,266.3,5.9z"/>
</g>
</svg>
